<svg width="250.000000" height="150.000000" viewBox="0 0 250 150" fill="none" xmlns="http://www.w3.org/2000/svg" xmlns:xlink="http://www.w3.org/1999/xlink">
	<desc>
			Created with Pixso.
	</desc>
	<defs>
		<clipPath id="clip125_357">
			<rect id="Frame 23" width="250.000000" height="150.000000" fill="white" fill-opacity="0"/>
		</clipPath>
	</defs>
	<g clip-path="url(#clip125_357)">
		<path id="Vector" d="M134.464 64.9902L134.464 61.1611C134.468 60.5781 134.907 60.1885 135.438 60.1885L152.59 60.1885C153.142 60.1885 153.58 60.5894 153.58 61.1577L153.58 64.4473C153.574 64.9902 153.11 65.7124 152.289 66.856L143.397 79.5547C146.696 79.4775 150.188 79.9707 153.186 81.6592C153.861 82.041 154.045 82.5977 154.096 83.1514L154.096 87.2456C154.096 87.8115 153.479 88.4653 152.836 88.125C147.551 85.3496 140.545 85.0479 134.708 88.1582C134.11 88.478 133.488 87.8374 133.488 87.2715L133.488 83.3765C133.488 82.7554 133.497 81.6909 134.125 80.7437L144.417 65.9585L135.457 65.9585C134.91 65.958 134.47 65.5674 134.464 64.9902ZM71.8942 88.9312L66.675 88.9312C66.1785 88.9009 65.7783 88.5269 65.7415 88.0493L65.7462 61.2266C65.7462 60.6919 66.1932 60.2607 66.752 60.2607L71.6118 60.2588C72.1211 60.2866 72.5281 60.6719 72.5615 61.1611L72.5615 64.6646L72.6571 64.6646C73.9208 61.2773 76.3113 59.6943 79.5233 59.6943C82.7896 59.6943 84.8298 61.2773 86.2954 64.6646C87.563 61.2773 90.4344 59.6943 93.5066 59.6943C95.7 59.6943 98.0846 60.5991 99.5482 62.6309C101.207 64.8828 100.864 68.1616 100.864 71.0342L100.862 87.9644C100.862 88.502 100.407 88.9312 99.853 88.9312L94.642 88.9312C94.116 88.9004 93.705 88.4839 93.705 87.9697L93.7029 73.7461C93.7029 72.6187 93.7982 69.7998 93.5543 68.7222C93.1617 66.917 91.9934 66.4092 90.4834 66.4092C89.2224 66.4092 87.9042 67.2563 87.3665 68.6113C86.8333 69.9673 86.8796 72.2197 86.8796 73.7461L86.8796 87.9639C86.8796 88.5015 86.4287 88.9302 85.8728 88.9302L80.6608 88.9302C80.136 88.8999 79.7224 88.4829 79.7224 87.9692L79.7158 73.7456C79.7158 70.752 80.2056 66.3525 76.5049 66.3525C72.7504 66.3525 72.8976 70.646 72.8976 73.7456L72.8955 87.9629C72.895 88.5024 72.453 88.9312 71.8942 88.9312ZM168.352 59.6943C176.09 59.6943 180.288 66.354 180.288 74.8193C180.288 82.9985 175.651 89.4976 168.352 89.4976C160.749 89.4976 156.605 82.8257 156.605 74.5337C156.605 66.186 160.796 59.6943 168.352 59.6943ZM168.401 65.1665C164.547 65.1665 164.303 70.4214 164.303 73.6846C164.303 76.9595 164.254 83.9551 168.351 83.9551C172.386 83.9551 172.578 78.3135 172.578 74.8799C172.578 72.6191 172.483 69.9116 171.799 67.7651C171.216 65.8994 170.047 65.1665 168.401 65.1665ZM190.329 88.9312L185.125 88.9312C184.599 88.9009 184.189 88.4839 184.189 87.9697L184.178 61.1372C184.224 60.6455 184.656 60.2603 185.182 60.2603L190.029 60.2583C190.487 60.2827 190.862 60.5947 190.956 61.0117L190.956 65.1118L191.055 65.1118C192.515 61.4463 194.553 59.6938 198.159 59.6938C200.5 59.6938 202.795 60.542 204.256 62.8589C205.612 64.9966 205.612 68.6118 205.612 71.2061L205.612 88.084C205.552 88.5645 205.124 88.9312 204.622 88.9312L199.382 88.9312C198.906 88.9028 198.511 88.5415 198.451 88.084L198.451 73.5215C198.451 70.5913 198.797 66.2959 195.185 66.2959C193.916 66.2959 192.76 67.145 192.172 68.4443C191.442 70.0815 191.347 71.7134 191.347 73.5215L191.347 87.9644C191.333 88.5024 190.885 88.9312 190.329 88.9312ZM61.6664 84.0098C60.7169 82.686 59.7014 81.6177 59.7014 79.1689L59.7014 71.0273C59.7014 67.583 59.9478 64.417 57.4054 62.0415C55.4014 60.1157 52.0829 59.437 49.5416 59.437C44.5745 59.437 39.0355 61.293 37.8719 67.4365C37.7482 68.0938 38.2234 68.4346 38.6517 68.5312L43.7102 69.0801C44.1804 69.0557 44.5258 68.5864 44.6165 68.1167C45.0516 65.998 46.8226 64.9775 48.8132 64.9775C49.8833 64.9775 51.104 65.376 51.7418 66.3369C52.4739 67.4092 52.3756 68.8833 52.3756 70.1274L52.3756 70.8003C49.3467 71.1416 45.3911 71.3667 42.5637 72.6123C39.2921 74.0298 37 76.9092 37 81.1553C37 86.5889 40.4152 89.3037 44.8055 89.3037C48.5239 89.3037 50.5463 88.4253 53.4141 85.5034C54.3624 86.8765 54.672 87.5396 56.4043 88.9878C56.7939 89.1943 57.2913 89.1782 57.6382 88.8647L57.6498 88.8774C58.6927 87.9468 60.5897 86.2983 61.65 85.4053C62.0734 85.0537 61.9985 84.4834 61.6664 84.0098ZM51.3977 81.6626C50.5663 83.126 49.2512 84.0322 47.7874 84.0322C45.7842 84.0322 44.613 82.5039 44.613 80.2476C44.613 75.7998 48.6024 74.9927 52.3763 74.9927L52.3763 76.1211C52.3763 78.1519 52.4241 79.8506 51.3977 81.6626ZM130.083 84.0098C129.127 82.686 128.113 81.6177 128.113 79.1689L128.113 71.0273C128.113 67.583 128.357 64.417 125.815 62.0415C123.82 60.1157 120.496 59.437 117.96 59.437C112.994 59.437 107.452 61.293 106.29 67.4365C106.166 68.0938 106.641 68.4346 107.068 68.5312L112.124 69.0801C112.601 69.0557 112.944 68.5864 113.033 68.1167C113.471 65.998 115.234 64.9775 117.228 64.9775C118.301 64.9775 119.524 65.376 120.155 66.3369C120.886 67.4092 120.788 68.8833 120.788 70.1274L120.788 70.8003C117.763 71.1416 113.81 71.3667 110.98 72.6123C107.709 74.0298 105.414 76.9092 105.414 81.1553C105.414 86.5889 108.827 89.3037 113.223 89.3037C116.932 89.3037 118.965 88.4253 121.829 85.5034C122.776 86.8765 123.088 87.5396 124.82 88.9878C125.212 89.1943 125.705 89.1782 126.05 88.8647L126.061 88.8774C127.106 87.9468 129.003 86.2983 130.069 85.4053C130.493 85.0537 130.421 84.4834 130.083 84.0098ZM119.811 81.6626C118.986 83.126 117.666 84.0322 116.201 84.0322C114.198 84.0322 113.031 82.5039 113.031 80.2476C113.031 75.7998 117.016 74.9927 120.789 74.9927L120.789 76.1211C120.789 78.1519 120.839 79.8506 119.811 81.6626Z" fill="#F3F3F3" fill-opacity="1.000000" fill-rule="nonzero"/>
		<path id="Vector" d="M141.433 99.354C131.477 106.468 117.609 110.31 105.374 110.31C88.2356 110.31 72.9598 104.1 61.1904 93.4604C60.1018 92.4766 60.8047 91.3223 62.1582 92.1011C74.9617 99.5132 90.3059 103.85 106.406 103.85C117.263 103.85 128.796 101.685 139.755 97.0181C142.151 95.9956 143.144 98.1299 141.433 99.354Z" fill="#F9A51B" fill-opacity="1.000000" fill-rule="nonzero"/>
		<path id="Vector" d="M145.687 94.5527C144.428 92.9424 137.397 93.7915 134.238 94.1646C133.287 94.2817 133.132 93.4443 133.999 92.8389C139.607 88.9146 148.8 90.0571 149.863 91.3525C150.938 92.6851 149.579 101.918 144.325 106.326C143.515 107.008 142.755 106.638 143.111 105.745C144.29 102.784 146.94 96.1572 145.687 94.5527Z" fill="#F9A51B" fill-opacity="1.000000" fill-rule="nonzero"/>
		<path id="Vector" d="M211.548 84.5513C212.136 84.5513 212.636 84.7583 213.048 85.1724C213.46 85.5825 213.668 86.0815 213.668 86.666C213.668 87.2534 213.461 87.7534 213.048 88.1665C212.637 88.5806 212.138 88.7881 211.548 88.7881C210.96 88.7881 210.461 88.5806 210.05 88.1665C209.64 87.7534 209.435 87.2529 209.435 86.666C209.435 86.0815 209.64 85.5825 210.054 85.1724C210.467 84.7583 210.966 84.5513 211.548 84.5513ZM214 86.6606C214 85.9844 213.759 85.4082 213.282 84.9326C212.804 84.4565 212.223 84.2183 211.546 84.2183C210.872 84.2183 210.298 84.4565 209.819 84.9326C209.342 85.4106 209.102 85.9863 209.102 86.6606C209.102 87.3408 209.339 87.9209 209.813 88.3984C210.289 88.8804 210.868 89.1211 211.545 89.1211C212.223 89.1211 212.803 88.8804 213.281 88.3984C213.759 87.9199 214 87.3403 214 86.6606ZM212.197 86.1313C212.197 86.3335 212.104 86.4707 211.917 86.5449C211.813 86.5854 211.661 86.6035 211.459 86.6035L211.025 86.6035L211.025 85.644L211.434 85.644C211.702 85.644 211.894 85.6748 212.017 85.7412C212.136 85.8081 212.197 85.9365 212.197 86.1313ZM210.562 85.311L210.562 87.9932L211.025 87.9932L211.025 86.936L211.404 86.936C211.66 86.936 211.838 86.9658 211.939 87.0215C212.112 87.124 212.197 87.3262 212.197 87.6377L212.197 87.8501L212.207 87.936L212.213 87.9663C212.217 87.9736 212.219 87.9844 212.221 87.9932L212.661 87.9932L212.644 87.959C212.63 87.936 212.623 87.8911 212.619 87.8203C212.613 87.749 212.613 87.6831 212.613 87.6201L212.613 87.4253C212.613 87.2896 212.562 87.1504 212.467 87.0073C212.369 86.8657 212.217 86.7783 212.006 86.7461C212.172 86.7197 212.301 86.6768 212.395 86.6162C212.572 86.5015 212.661 86.3252 212.661 86.0864C212.661 85.75 212.52 85.5234 212.241 85.4072C212.085 85.3438 211.84 85.3115 211.505 85.3115L210.562 85.311Z" fill="#F3F3F3" fill-opacity="1.000000" fill-rule="nonzero"/>
	</g>
</svg>
