<svg width="250.000000" height="150.000000" viewBox="0 0 250 150" fill="none" xmlns="http://www.w3.org/2000/svg" xmlns:xlink="http://www.w3.org/1999/xlink">
	<desc>
			Created with Pixso.
	</desc>
	<defs>
		<clipPath id="clip125_365">
			<rect id="Frame 24" width="250.000000" height="150.000000" fill="white" fill-opacity="0"/>
		</clipPath>
	</defs>
	<g clip-path="url(#clip125_365)">
		<path id="Vector" d="M183.127 96.7593L176.961 89.8462L170.857 96.7593L158.006 96.7593L170.569 82.644L158.006 68.5293L171.259 68.5293L177.482 75.3853L183.471 68.5293L196.262 68.5293L183.76 82.5864L196.434 96.7578L183.127 96.7593ZM133.323 96.7593L133.323 52.29L158.006 52.29L158.006 62.2021L143.778 62.2021L143.778 68.5293L158.006 68.5293L158.006 78.0649L143.778 78.0649L143.778 86.8198L158.006 86.8198L158.006 96.7593L133.323 96.7593Z" fill="#D9782D" fill-opacity="1.000000" fill-rule="evenodd"/>
		<path id="Vector" d="M122.913 52.29L122.913 70.4888L122.798 70.4888C120.494 67.8384 117.613 66.9165 114.272 66.9165C107.426 66.9165 102.27 71.5723 100.461 77.7236C98.3955 70.9458 93.0723 66.791 85.1797 66.791C78.7687 66.791 73.7073 69.6685 71.0647 74.3564L71.0647 68.5293L57.8129 68.5293L57.8129 62.2021L72.2725 62.2021L72.2725 52.29L46 52.29L46 96.7593L57.8129 96.7593L57.8129 78.0649L69.5852 78.0649C69.2224 79.502 69.0414 80.979 69.0463 82.4609C69.0463 91.7368 76.1338 98.2461 85.1786 98.2461C92.7832 98.2461 97.7944 94.6753 100.446 88.166L90.3229 88.166C88.9547 90.1235 87.9149 90.7026 85.1786 90.7026C82.0035 90.7026 79.2672 87.9346 79.2672 84.6504L99.8794 84.6504C100.773 92.0176 106.512 98.3716 114.387 98.3716C117.786 98.3716 120.897 96.7012 122.798 93.8774L122.913 93.8774L122.913 96.7593L133.323 96.7593L133.323 52.29L122.913 52.29ZM79.5957 78.1982C80.2524 75.3755 82.4421 73.5283 85.1786 73.5283C88.1876 73.5283 90.2683 75.3188 90.8149 78.1982L79.5957 78.1982ZM116.593 89.9893C112.755 89.9893 110.371 86.4116 110.371 82.6782C110.371 78.686 112.444 74.8486 116.593 74.8486C120.895 74.8486 122.607 78.686 122.607 82.6782C122.607 86.4619 120.792 89.9893 116.593 89.9893Z" fill="#F3F3F3" fill-opacity="1.000000" fill-rule="evenodd"/>
		<path id="Vector" d="M199.281 93.8936C199.282 93.5181 199.357 93.146 199.501 92.7988C199.646 92.4521 199.857 92.1372 200.124 91.8721C200.39 91.6069 200.706 91.397 201.054 91.2544C201.401 91.1113 201.774 91.0386 202.149 91.0396C202.524 91.0396 202.895 91.1133 203.241 91.2568C203.587 91.4004 203.902 91.6108 204.166 91.8755C204.431 92.1406 204.641 92.4556 204.784 92.8018C204.927 93.1479 205.001 93.519 205 93.8936C205.002 94.2695 204.93 94.6421 204.788 94.9897C204.646 95.3374 204.436 95.6533 204.171 95.9199C203.906 96.186 203.591 96.3975 203.244 96.542C202.897 96.686 202.525 96.7603 202.149 96.7598C201.773 96.7612 201.399 96.688 201.051 96.5444C200.702 96.4009 200.386 96.1899 200.119 95.9233C199.852 95.6572 199.641 95.3408 199.497 94.9922C199.354 94.644 199.28 94.2705 199.281 93.8936ZM204.501 93.8936C204.5 93.2705 204.252 92.6729 203.812 92.2324C203.371 91.7915 202.774 91.5435 202.151 91.5425C201.525 91.5415 200.925 91.7881 200.482 92.229C200.038 92.6699 199.788 93.2686 199.785 93.8936C199.785 95.2021 200.842 96.2593 202.151 96.2593C202.46 96.2583 202.767 96.1963 203.052 96.0771C203.338 95.9575 203.598 95.7832 203.816 95.5635C204.034 95.3438 204.207 95.0835 204.324 94.7969C204.442 94.5103 204.502 94.2036 204.501 93.8936ZM201.541 94.0825L201.541 95.5371L201.017 95.5371L201.017 92.1753L202.104 92.1753C202.719 92.1753 203.358 92.3433 203.358 93.104C203.358 93.4902 203.124 93.7954 202.672 93.8882L202.672 93.9048C203.139 93.9951 203.192 94.2002 203.243 94.5649C203.29 94.8823 203.328 95.2324 203.443 95.5381L202.772 95.5381C202.734 95.3491 202.683 95.1353 202.659 94.9355C202.621 94.6465 202.621 94.3804 202.467 94.2212C202.339 94.0835 202.165 94.1001 201.981 94.0835L201.541 94.0835L201.541 94.0825ZM202.094 93.561C202.59 93.5425 202.704 93.3374 202.704 93.0796C202.704 92.8301 202.59 92.6992 202.173 92.6992L201.541 92.6992L201.541 93.561L202.094 93.561Z" fill="#D9782D" fill-opacity="1.000000" fill-rule="evenodd"/>
	</g>
</svg>
