<svg width="28.000000" height="28.000000" viewBox="0 0 28 28" fill="none" xmlns="http://www.w3.org/2000/svg" xmlns:xlink="http://www.w3.org/1999/xlink">
	<desc>
			Created with Pixso.
	</desc>
	<defs>
		<clipPath id="clip62_569">
			<rect id="ig-instagram 1" width="28.000000" height="28.000000" fill="white" fill-opacity="0"/>
		</clipPath>
		<radialGradient id="paint_radial_62_570_0" cx="0.000000" cy="0.000000" r="1.000000" gradientUnits="userSpaceOnUse" gradientTransform="translate(7.53816 29.9091) rotate(-90) scale(27.3273 25.4227)">
			<stop stop-color="#FFDD55"/>
			<stop offset="0.100000" stop-color="#FFDD55"/>
			<stop offset="0.500000" stop-color="#FF543E"/>
			<stop offset="1.000000" stop-color="#C837AB"/>
		</radialGradient>
		<radialGradient id="paint_radial_62_571_0" cx="0.000000" cy="0.000000" r="1.000000" gradientUnits="userSpaceOnUse" gradientTransform="translate(-4.40765 2.19825) rotate(78.678) scale(12.2155 50.3642)">
			<stop stop-color="#3771C8"/>
			<stop offset="0.128000" stop-color="#3771C8"/>
			<stop offset="1.000000" stop-color="#6600FF" stop-opacity="0.000000"/>
		</radialGradient>
	</defs>
	<rect id="ig-instagram 1" width="28.000000" height="28.000000" fill="#FFFFFF" fill-opacity="0"/>
	<g clip-path="url(#clip62_569)">
		<path id="Vector" d="M14.0067 0.211914C8.24951 0.211914 6.56567 0.217773 6.2384 0.245117C5.05701 0.343262 4.32178 0.529297 3.52087 0.928223C2.90356 1.23438 2.41675 1.58984 1.93628 2.08789C1.0614 2.99609 0.531006 4.11377 0.339111 5.44189C0.245728 6.08691 0.218628 6.21826 0.213135 9.51221C0.210938 10.6099 0.213135 12.0552 0.213135 13.9932C0.213135 19.7461 0.219482 21.4282 0.24707 21.7549C0.342529 22.9043 0.522827 23.6279 0.904541 24.4189C1.63428 25.9336 3.02783 27.0703 4.66968 27.4946C5.23816 27.6411 5.86597 27.7217 6.672 27.7598C7.01355 27.7749 10.4943 27.7852 13.9772 27.7852C17.4602 27.7852 20.9431 27.7812 21.2761 27.7642C22.2094 27.7202 22.7513 27.6475 23.3506 27.4927C25.0029 27.0664 26.3711 25.9463 27.1156 24.4106C27.49 23.6382 27.6798 22.8877 27.7657 21.7979C27.7844 21.5601 27.7922 17.7725 27.7922 13.9897C27.7922 10.2061 27.7838 6.42529 27.7651 6.18799C27.6781 5.08057 27.4883 4.33594 27.1018 3.54883C26.7847 2.90479 26.4326 2.42383 25.9214 1.93164C25.0092 1.06055 23.8934 0.530273 22.5638 0.338379C21.9197 0.245117 21.7914 0.217773 18.4951 0.211914L14.0067 0.211914Z" fill="url(#paint_radial_62_570_0)" fill-opacity="1.000000" fill-rule="nonzero"/>
		<path id="Vector" d="M14.0067 0.211914C8.24951 0.211914 6.56567 0.217773 6.2384 0.245117C5.05701 0.343262 4.32178 0.529297 3.52087 0.928223C2.90356 1.23438 2.41675 1.58984 1.93628 2.08789C1.0614 2.99609 0.531006 4.11377 0.339111 5.44189C0.245728 6.08691 0.218628 6.21826 0.213135 9.51221C0.210938 10.6099 0.213135 12.0552 0.213135 13.9932C0.213135 19.7461 0.219482 21.4282 0.24707 21.7549C0.342529 22.9043 0.522827 23.6279 0.904541 24.4189C1.63428 25.9336 3.02783 27.0703 4.66968 27.4946C5.23816 27.6411 5.86597 27.7217 6.672 27.7598C7.01355 27.7749 10.4943 27.7852 13.9772 27.7852C17.4602 27.7852 20.9431 27.7812 21.2761 27.7642C22.2094 27.7202 22.7513 27.6475 23.3506 27.4927C25.0029 27.0664 26.3711 25.9463 27.1156 24.4106C27.49 23.6382 27.6798 22.8877 27.7657 21.7979C27.7844 21.5601 27.7922 17.7725 27.7922 13.9897C27.7922 10.2061 27.7838 6.42529 27.7651 6.18799C27.6781 5.08057 27.4883 4.33594 27.1018 3.54883C26.7847 2.90479 26.4326 2.42383 25.9214 1.93164C25.0092 1.06055 23.8934 0.530273 22.5638 0.338379C21.9197 0.245117 21.7914 0.217773 18.4951 0.211914L14.0067 0.211914Z" fill="url(#paint_radial_62_571_0)" fill-opacity="1.000000" fill-rule="nonzero"/>
		<path id="Vector" d="M14.0005 3.81836C11.2354 3.81836 10.8883 3.83057 9.80225 3.87988C8.71838 3.92969 7.97852 4.10107 7.33118 4.35303C6.6615 4.61279 6.09351 4.96094 5.52759 5.52686C4.96118 6.09277 4.61328 6.66113 4.35242 7.33057C4.09998 7.97803 3.92822 8.71826 3.87939 9.80176C3.83081 10.8877 3.81812 11.2349 3.81812 14C3.81812 16.7656 3.83044 17.1113 3.87964 18.1973C3.92944 19.2812 4.10107 20.021 4.35266 20.6685C4.61292 21.3384 4.96082 21.9062 5.52686 22.4722C6.09265 23.0386 6.66064 23.3872 7.32983 23.6475C7.97766 23.8994 8.71777 24.0708 9.80139 24.1206C10.8875 24.1699 11.2343 24.1821 13.9991 24.1821C16.7645 24.1821 17.1105 24.1699 18.1965 24.1206C19.2804 24.0708 20.0211 23.8994 20.6689 23.6475C21.3384 23.3872 21.9055 23.0386 22.4713 22.4722C23.0376 21.9062 23.3855 21.3384 23.6464 20.6689C23.8967 20.021 24.0685 19.2812 24.1194 18.1978C24.1682 17.1113 24.1809 16.7656 24.1809 14C24.1809 11.2349 24.1682 10.8877 24.1194 9.80176C24.0685 8.71777 23.8967 7.97803 23.6464 7.33057C23.3855 6.66113 23.0376 6.09277 22.4713 5.52686C21.9049 4.96045 21.3386 4.61279 20.6683 4.35303C20.0193 4.10107 19.2789 3.92969 18.1951 3.87988C17.109 3.83057 16.7633 3.81836 13.9973 3.81836L14.0005 3.81836ZM13.0872 5.65332C13.3582 5.65283 13.6606 5.65332 14.0005 5.65332C16.719 5.65332 17.0411 5.66309 18.1146 5.71191C19.1073 5.75732 19.6461 5.92285 20.005 6.0625C20.4801 6.24707 20.8188 6.46777 21.175 6.82373C21.5314 7.18018 21.752 7.51953 21.937 7.99463C22.0763 8.35352 22.2424 8.89209 22.2876 9.88477C22.3364 10.958 22.3469 11.2808 22.3469 13.998C22.3469 16.7153 22.3364 17.0376 22.2876 18.1108C22.2422 19.1035 22.0763 19.6426 21.937 20.001C21.7524 20.4761 21.5314 20.8145 21.175 21.1704C20.8187 21.5269 20.4803 21.7476 20.005 21.9321C19.6465 22.0723 19.1073 22.2373 18.1146 22.2827C17.0414 22.3315 16.719 22.3423 14.0005 22.3423C11.2817 22.3423 10.9596 22.3315 9.88635 22.2827C8.89355 22.2368 8.35486 22.0713 7.99573 21.9316C7.52063 21.7471 7.18115 21.5269 6.82483 21.1704C6.46851 20.814 6.24792 20.4756 6.06287 20C5.92358 19.6416 5.75745 19.1025 5.71228 18.1099C5.66357 17.0366 5.65381 16.7144 5.65381 13.9951C5.65381 11.2764 5.66357 10.9556 5.71228 9.88232C5.75769 8.88965 5.92358 8.35059 6.06287 7.9917C6.24744 7.5166 6.46851 7.17725 6.82483 6.8208C7.18115 6.46436 7.52063 6.24414 7.99573 6.05908C8.35461 5.91895 8.89355 5.75342 9.88635 5.70801C10.8256 5.66553 11.1896 5.65283 13.0872 5.65088L13.0872 5.65332ZM19.4353 7.34375C18.7607 7.34375 18.2135 7.89062 18.2135 8.56543C18.2135 9.23975 18.7607 9.78711 19.4353 9.78711C20.1099 9.78711 20.6571 9.23975 20.6571 8.56543C20.6571 7.89062 20.1099 7.34326 19.4353 7.34326L19.4353 7.34375ZM14.0005 8.77148C11.1129 8.77148 8.77185 11.1128 8.77185 14C8.77185 16.8877 11.1129 19.228 14.0005 19.228C16.8879 19.228 19.2283 16.8877 19.2283 14C19.2283 11.1128 16.8878 8.77148 14.0002 8.77148L14.0005 8.77148ZM14.0005 10.6064C15.8748 10.6064 17.3943 12.1255 17.3943 14C17.3943 15.8745 15.8748 17.394 14.0005 17.394C12.126 17.394 10.6067 15.8745 10.6067 14C10.6067 12.1255 12.126 10.6064 14.0005 10.6064Z" fill="#F3F3F3" fill-opacity="1.000000" fill-rule="nonzero"/>
	</g>
</svg>
