<svg width="250.000000" height="150.000000" viewBox="0 0 250 150" fill="none" xmlns="http://www.w3.org/2000/svg" xmlns:xlink="http://www.w3.org/1999/xlink">
	<desc>
			Created with Pixso.
	</desc>
	<defs>
		<clipPath id="clip125_227">
			<rect id="J.B.-Hunt-Logo logo" width="176.000000" height="48.000000" transform="translate(37.000000 51.000000)" fill="white" fill-opacity="0"/>
		</clipPath>
		<clipPath id="clip125_379">
			<rect id="Frame 27" width="250.000000" height="150.000000" fill="white" fill-opacity="0"/>
		</clipPath>
	</defs>
	<g clip-path="url(#clip125_379)">
		<rect id="J.B.-Hunt-Logo logo" width="176.000000" height="48.000000" transform="translate(37.000000 51.000000)" fill="#FFFFFF" fill-opacity="0"/>
		<g clip-path="url(#clip125_227)">
			<path id="path169" d="M212.724 98.7271L37.2732 98.7271L37.2732 51.2729L212.724 51.2729L212.724 98.7271Z" fill="#231F20" fill-opacity="1.000000" fill-rule="nonzero"/>
			<path id="path171" d="M212.726 98.7271L212.726 51.2729L37.2744 51.2729L37.2744 98.7271L212.726 98.7271Z" stroke="#000000" stroke-opacity="1.000000" stroke-width="0.572500"/>
			<path id="path173" d="M208.777 94.8008L41.2188 94.8008L41.2188 55.1992L208.777 55.1992L208.777 94.8008Z" fill="#FEDD03" fill-opacity="1.000000" fill-rule="nonzero"/>
			<path id="path175" d="M41.2202 55.1992L41.2202 94.8008L208.779 94.8008L208.779 55.1992L41.2202 55.1992Z" stroke="#FEDD03" stroke-opacity="1.000000" stroke-width="0.572500"/>
			<path id="path179" d="M49.5583 65.7451C50.5244 64.7837 54.3945 65.2812 57.4771 68.1436C60.5598 71.0054 60.8474 73.6641 60.2314 74.3999C59.614 75.1353 55.8748 74.605 53.655 72.8867C53.0784 72.5181 52.3389 71.8911 52.3389 71.8911C49.5991 69.4937 48.4077 67.1089 49.5583 65.7451Z" stroke="#000000" stroke-opacity="1.000000" stroke-width="0.720000"/>
			<path id="path183" d="M52.6672 72.0679C51.271 70.9639 48.1057 67.897 48.1465 64.9116C48.1465 63.9316 49.2563 62.1323 51.9697 62.2134C54.6821 62.2959 57.272 63.8896 60.8054 67.6934C64.3411 71.4966 73.7593 82.4014 75.0273 83.8438C76.7544 85.8062 77.5767 87.6055 84.8914 87.6055L198.17 87.6055" stroke="#000000" stroke-opacity="1.000000" stroke-width="0.720000"/>
			<path id="path187" d="M200.295 84.0942C199.329 85.0537 195.459 84.5566 192.375 81.6938C189.293 78.8325 189.006 76.1748 189.622 75.438C190.24 74.7036 193.979 75.2329 196.199 76.9512C196.774 77.3208 197.515 77.9468 197.515 77.9468C200.255 80.3457 201.446 82.73 200.295 84.0942Z" stroke="#000000" stroke-opacity="1.000000" stroke-width="0.720000"/>
			<path id="path191" d="M197.186 77.769C198.583 78.873 201.748 81.9409 201.707 84.9253C201.707 85.9077 200.598 87.7056 197.885 87.623C195.171 87.542 192.582 85.9468 189.048 82.1445C185.514 78.3428 176.094 67.4355 174.827 65.9941C173.1 64.0303 172.277 62.2324 164.962 62.2324L51.7646 62.2324" stroke="#000000" stroke-opacity="1.000000" stroke-width="0.720000"/>
			<path id="path195" d="M50.7783 65.293L58.177 65.293" stroke="#000000" stroke-opacity="1.000000" stroke-width="0.771250"/>
			<path id="path199" d="M59.656 74.6978L67.0547 74.6978" stroke="#000000" stroke-opacity="1.000000" stroke-width="0.771250"/>
			<path id="path203" d="M182.8 75.1353L190.526 75.1353" stroke="#000000" stroke-opacity="1.000000" stroke-width="0.771250"/>
			<path id="path207" d="M191.759 84.5391L199.159 84.5391" stroke="#000000" stroke-opacity="1.000000" stroke-width="0.771250"/>
			<path id="path211" d="M49.2983 67.9805L57.1355 67.9805" stroke="#000000" stroke-opacity="1.000000" stroke-width="0.515000"/>
			<path id="path215" d="M50.8325 70.3247L59.2175 70.3247" stroke="#000000" stroke-opacity="1.000000" stroke-width="0.515000"/>
			<path id="path219" d="M53.5183 72.7231L65.2461 72.7231" stroke="#000000" stroke-opacity="1.000000" stroke-width="0.515000"/>
			<path id="path223" d="M60.5332 73.4863L65.9038 73.4863" stroke="#000000" stroke-opacity="1.000000" stroke-width="0.515000"/>
			<path id="path227" d="M59.656 70.7607L63.3284 70.7607" stroke="#000000" stroke-opacity="1.000000" stroke-width="0.515000"/>
			<path id="path231" d="M57.5742 68.145L60.9158 68.145" stroke="#000000" stroke-opacity="1.000000" stroke-width="0.515000"/>
			<path id="path235" d="M56.0388 66.8906L59.8203 66.8906" stroke="#000000" stroke-opacity="1.000000" stroke-width="0.515000"/>
			<path id="path239" d="M48.1465 65.1763L50.5039 65.1763" stroke="#000000" stroke-opacity="1.000000" stroke-width="0.515000"/>
			<path id="path243" d="M48.2554 64.3271L56.9148 64.3271" stroke="#000000" stroke-opacity="1.000000" stroke-width="0.515000"/>
			<path id="path247" d="M48.8596 63.2935L55.6541 63.2935" stroke="#000000" stroke-opacity="1.000000" stroke-width="0.515000"/>
			<path id="path251" d="M56.8059 63.8921L172.552 63.8921" stroke="#000000" stroke-opacity="1.000000" stroke-width="0.515000"/>
			<path id="path255" d="M174.25 65.7925L58.8325 65.7925" stroke="#000000" stroke-opacity="1.000000" stroke-width="0.515000"/>
			<path id="path259" d="M60.314 67.0146L76.3384 67.0146" stroke="#000000" stroke-opacity="1.000000" stroke-width="0.515000"/>
			<path id="path263" d="M61.4097 68.3789L76.3386 68.3789" stroke="#000000" stroke-opacity="1.000000" stroke-width="0.515000"/>
			<path id="path267" d="M62.5049 69.6245L76.3372 69.6245" stroke="#000000" stroke-opacity="1.000000" stroke-width="0.515000"/>
			<path id="path271" d="M63.875 70.9805L76.3386 70.9805" stroke="#000000" stroke-opacity="1.000000" stroke-width="0.515000"/>
			<path id="path275" d="M64.8613 72.3276L76.3386 72.3276" stroke="#000000" stroke-opacity="1.000000" stroke-width="0.515000"/>
			<path id="path279" d="M66.2312 73.7593L76.3386 73.7593" stroke="#000000" stroke-opacity="1.000000" stroke-width="0.515000"/>
			<path id="path283" d="M67.7114 75.2163L76.3386 75.2163" stroke="#000000" stroke-opacity="1.000000" stroke-width="0.515000"/>
			<path id="path287" d="M69.7383 77.687L76.3386 77.687" stroke="#000000" stroke-opacity="1.000000" stroke-width="0.515000"/>
			<path id="path291" d="M71.5469 79.6479L76.3374 79.6479" stroke="#000000" stroke-opacity="1.000000" stroke-width="0.515000"/>
			<path id="path295" d="M73.136 81.5557L76.3374 81.5557" stroke="#000000" stroke-opacity="1.000000" stroke-width="0.515000"/>
			<path id="path299" d="M74.4521 83.082L76.3386 83.082" stroke="#000000" stroke-opacity="1.000000" stroke-width="0.515000"/>
			<path id="path303" d="M75.877 84.6392L191.678 84.6392" stroke="#000000" stroke-opacity="1.000000" stroke-width="0.515000"/>
			<path id="path307" d="M77.4126 86.0649L193.376 86.0649" stroke="#000000" stroke-opacity="1.000000" stroke-width="0.515000"/>
			<path id="path311" d="M197.598 78.1206L189.926 78.1206" stroke="#000000" stroke-opacity="1.000000" stroke-width="0.515000"/>
			<path id="path315" d="M199.624 80.2476L191.075 80.2476" stroke="#000000" stroke-opacity="1.000000" stroke-width="0.515000"/>
			<path id="path319" d="M172.901 68.0352L176.497 68.0352" stroke="#000000" stroke-opacity="1.000000" stroke-width="0.515000"/>
			<path id="path323" d="M177.977 69.7964L172.901 69.7964" stroke="#000000" stroke-opacity="1.000000" stroke-width="0.515000"/>
			<path id="path327" d="M180.115 72.1245L172.903 72.1245" stroke="#000000" stroke-opacity="1.000000" stroke-width="0.515000"/>
			<path id="path331" d="M181.486 73.5576L172.903 73.5576" stroke="#000000" stroke-opacity="1.000000" stroke-width="0.515000"/>
			<path id="path335" d="M182.332 74.688L172.904 74.688" stroke="#000000" stroke-opacity="1.000000" stroke-width="0.515000"/>
			<path id="path339" d="M189.378 76.8701L184.5 76.8701" stroke="#000000" stroke-opacity="1.000000" stroke-width="0.515000"/>
			<path id="path343" d="M189.596 77.8501L185.158 77.8501" stroke="#000000" stroke-opacity="1.000000" stroke-width="0.515000"/>
			<path id="path347" d="M190.145 78.668L185.98 78.668" stroke="#000000" stroke-opacity="1.000000" stroke-width="0.515000"/>
			<path id="path351" d="M184.664 77.4136L172.903 77.4136" stroke="#000000" stroke-opacity="1.000000" stroke-width="0.515000"/>
			<path id="path355" d="M186.255 78.9946L172.903 78.9946" stroke="#000000" stroke-opacity="1.000000" stroke-width="0.515000"/>
			<path id="path359" d="M187.076 79.9746L172.903 79.9746" stroke="#000000" stroke-opacity="1.000000" stroke-width="0.515000"/>
			<path id="path363" d="M172.903 81.23L188.226 81.23" stroke="#000000" stroke-opacity="1.000000" stroke-width="0.515000"/>
			<path id="path367" d="M188.939 82.2354L172.903 82.2354" stroke="#000000" stroke-opacity="1.000000" stroke-width="0.515000"/>
			<path id="path371" d="M190.254 83.4189L172.903 83.4189" stroke="#000000" stroke-opacity="1.000000" stroke-width="0.515000"/>
			<path id="path375" d="M190.638 83.6289L195.241 83.6289" stroke="#000000" stroke-opacity="1.000000" stroke-width="0.515000"/>
			<path id="path379" d="M189.76 82.7573L193.597 82.7573" stroke="#000000" stroke-opacity="1.000000" stroke-width="0.515000"/>
			<path id="path383" d="M188.993 81.9395L192.445 81.9395" stroke="#000000" stroke-opacity="1.000000" stroke-width="0.515000"/>
			<path id="path387" d="M188.117 81.0117L191.679 81.0117" stroke="#000000" stroke-opacity="1.000000" stroke-width="0.515000"/>
			<path id="path391" d="M193.159 85.8647L201.379 85.8647" stroke="#000000" stroke-opacity="1.000000" stroke-width="0.515000"/>
			<path id="path395" d="M88.8118 78.6743L88.8118 67.2793L85.6321 67.2793L85.6321 78.1279C85.6321 79.3823 84.207 79.9199 83.3308 79.9199C82.8372 79.9199 80.8091 79.1021 80.3179 78.666L79.0569 81.0645C79.0569 81.0645 81.1938 82.9175 83.6592 82.9175C86.126 82.9175 87.2766 81.7192 87.7163 81.228C88.1538 80.7378 88.8118 79.5459 88.8118 78.6743Z" fill="#000000" fill-opacity="1.000000" fill-rule="nonzero"/>
			<path id="path399" d="M91.9353 82.9458C92.9192 82.9458 93.7188 82.1519 93.7188 81.1719C93.7188 80.1929 92.9192 79.3999 91.9353 79.3999C90.9512 79.3999 90.1519 80.1929 90.1519 81.1719C90.1519 82.1519 90.9512 82.9458 91.9353 82.9458Z" fill="#000000" fill-opacity="1.000000" fill-rule="nonzero"/>
			<path id="path403" d="M111.499 82.9458C112.483 82.9458 113.282 82.1519 113.282 81.1719C113.282 80.1929 112.483 79.3999 111.499 79.3999C110.515 79.3999 109.716 80.1929 109.716 81.1719C109.716 82.1519 110.515 82.9458 111.499 82.9458Z" fill="#000000" fill-opacity="1.000000" fill-rule="nonzero"/>
			<path id="path407" d="M104.342 73.5195C105.242 73.5195 105.969 72.7935 105.969 71.9004C105.969 71.0063 105.242 70.2803 104.342 70.2803L102.178 70.2769L102.178 73.5068L104.342 73.5195ZM104.652 79.8125C105.623 79.8125 106.411 79.0771 106.411 78.1089C106.411 77.144 105.623 76.3599 104.652 76.3599L102.178 76.356L102.178 79.8032L104.652 79.8125ZM102.178 82.5918L99 82.5918L99 67.0005L102.178 67.0005C103.535 67.0005 102.616 67.0049 105.083 67.0049C108.165 67.0049 109.397 69.6626 109.397 70.7261C109.397 71.7896 109.604 73.4258 107.59 74.5703C109.522 75.5513 109.974 76.9404 109.974 78.2495C109.974 79.5586 108.905 82.5845 105.001 82.5845L102.178 82.5918Z" fill="#000000" fill-opacity="1.000000" fill-rule="nonzero"/>
			<path id="path411" d="M126.982 67.2793L126.982 73.8276L122.432 73.8276L122.432 67.2793L119.255 67.2793L119.255 82.8638L122.432 82.8496L122.432 76.5674L126.982 76.5674L126.982 82.8638L130.16 82.8496L130.16 67.2793L126.982 67.2793Z" fill="#000000" fill-opacity="1.000000" fill-rule="nonzero"/>
			<path id="path415" d="M139.038 79.915C140.193 79.915 141.11 79.0234 141.11 77.874L141.107 67.2842L144.108 67.2842L144.108 76.6484C144.108 79.0474 144.381 80.2456 143.23 81.4448C142.079 82.6445 140.489 83.2715 139.038 83.2715C137.585 83.2715 135.996 82.6445 134.844 81.4448C133.694 80.2456 133.968 79.0474 133.968 76.6484L133.968 67.2842L136.968 67.2842L136.966 77.874C136.966 79.0234 137.883 79.915 139.038 79.915Z" fill="#000000" fill-opacity="1.000000" fill-rule="nonzero"/>
			<path id="path419" d="M169.605 67.2856L159.823 67.2856L159.823 70.1899L163.113 70.1899L163.113 82.8638L166.319 82.8638L166.319 70.1899L169.605 70.1899L169.605 67.2856Z" fill="#000000" fill-opacity="1.000000" fill-rule="nonzero"/>
			<path id="path423" d="M154.645 82.8232L150.411 74.2363L150.411 82.8638L147.45 82.8638L147.45 67.2856L150.411 67.2856L154.5 74.8086L154.517 74.4604L154.517 67.2856L157.476 67.2856L157.476 82.8638L154.66 82.8638L154.645 82.8232Z" fill="#000000" fill-opacity="1.000000" fill-rule="nonzero"/>
		</g>
	</g>
</svg>
