<svg width="28.000000" height="28.000000" viewBox="0 0 28 28" fill="none" xmlns="http://www.w3.org/2000/svg" xmlns:xlink="http://www.w3.org/1999/xlink">
	<desc>
			Created with Pixso.
	</desc>
	<defs>
		<clipPath id="clip62_573">
			<rect id="linkedin-app 1" width="28.000000" height="28.000000" fill="white" fill-opacity="0"/>
		</clipPath>
	</defs>
	<rect id="linkedin-app 1" width="28.000000" height="28.000000" fill="#FFFFFF" fill-opacity="0"/>
	<g clip-path="url(#clip62_573)">
		<path id="Vector" d="M6.32324 0L21.6768 0C23.3523 0.00488281 24.9579 0.675781 26.1427 1.86621C27.3274 3.05615 27.9952 4.66943 28 6.35254L28 21.6494C27.9946 23.3325 27.3265 24.9448 26.1418 26.1348C24.9572 27.3247 23.3519 27.9951 21.6768 28L6.32324 28C4.64807 27.9951 3.04285 27.3247 1.85815 26.1348C0.673462 24.9448 0.00537109 23.3325 0 21.6494L0 6.35254C0.00476074 4.66943 0.672607 3.05615 1.8573 1.86621C3.04211 0.675781 4.64771 0.00488281 6.32324 0L6.32324 0Z" fill="#0A66C2" fill-opacity="1.000000" fill-rule="evenodd"/>
		<path id="Vector" d="M11.2086 10.8535L14.7474 10.8535L14.7474 12.6851L14.7975 12.6851C15.292 11.7969 16.4951 10.8535 18.293 10.8535C22.0277 10.8535 22.7181 13.1885 22.7181 16.2266L22.7181 22.6499L19.0289 22.6499L19.0289 16.9404C19.0289 15.6333 19.0016 13.9507 17.1104 13.9507C15.2191 13.9507 14.8955 15.3726 14.8955 16.8467L14.8955 22.6616L11.2086 22.6616L11.2086 10.8535ZM9.11462 7.27783C9.11462 7.65869 9.00208 8.03174 8.79126 8.34863C8.58044 8.66553 8.28076 8.9126 7.93018 9.05859C7.57959 9.20459 7.19385 9.24268 6.82166 9.16797C6.44946 9.09375 6.10767 8.91016 5.83936 8.64062C5.57092 8.37109 5.38818 8.02783 5.31421 7.65381C5.24023 7.27979 5.2782 6.89209 5.42334 6.54004C5.5686 6.18799 5.81458 5.88672 6.13 5.6748C6.44556 5.46338 6.81653 5.3501 7.19592 5.3501C7.70459 5.35059 8.19226 5.5542 8.552 5.91553C8.91162 6.27686 9.11401 6.7666 9.11462 7.27783ZM5.28186 10.8535L9.11462 10.8535L9.11462 22.6499L5.28186 22.6499L5.28186 10.8535Z" fill="#F3F3F3" fill-opacity="1.000000" fill-rule="evenodd"/>
	</g>
</svg>
