<svg width="28.000000" height="28.000000" viewBox="0 0 28 28" fill="none" xmlns="http://www.w3.org/2000/svg" xmlns:xlink="http://www.w3.org/1999/xlink">
	<desc>
			Created with Pixso.
	</desc>
	<defs>
		<clipPath id="clip62_566">
			<rect id="twitter-app 1" width="28.000000" height="28.000000" fill="white" fill-opacity="0"/>
		</clipPath>
	</defs>
	<rect id="twitter-app 1" width="28.000000" height="28.000000" fill="#FFFFFF" fill-opacity="0"/>
	<g clip-path="url(#clip62_566)">
		<path id="Vector" d="M6.32324 0L21.6768 0C23.3523 0.00488281 24.9579 0.675781 26.1427 1.86621C27.3274 3.05615 27.9952 4.66943 28 6.35254L28 21.6494C27.9946 23.3325 27.3265 24.9448 26.1418 26.1348C24.9572 27.3247 23.3519 27.9951 21.6768 28L6.32324 28C4.64807 27.9951 3.04285 27.3247 1.85815 26.1348C0.673462 24.9448 0.00537109 23.3325 0 21.6494L0 6.35254C0.00476074 4.66943 0.672607 3.05615 1.8573 1.86621C3.04211 0.675781 4.64771 0.00488281 6.32324 0L6.32324 0Z" fill="#1CA1F1" fill-opacity="1.000000" fill-rule="evenodd"/>
		<path id="Vector" d="M23.3676 8.16309C22.667 8.47607 21.9233 8.68066 21.1617 8.77002C21.9626 8.2876 22.5631 7.53076 22.8525 6.63867C22.0978 7.08789 21.2726 7.40527 20.4121 7.57715C19.885 7.01318 19.2014 6.62109 18.45 6.45166C17.6985 6.28271 16.9137 6.34424 16.1974 6.62842C15.4811 6.9126 14.8662 7.40625 14.4326 8.0459C13.9989 8.68506 13.7665 9.44092 13.7653 10.2144C13.7655 10.5103 13.7983 10.8052 13.8633 11.0938C12.3354 11.0166 10.8409 10.6172 9.47681 9.92188C8.11255 9.22656 6.9093 8.25049 5.94495 7.05762C5.60303 7.64697 5.42297 8.31689 5.42322 8.99902C5.42371 9.6333 5.57983 10.2573 5.87793 10.8164C6.17603 11.3755 6.60681 11.8521 7.1322 12.2036C6.52209 12.1831 5.92554 12.0176 5.39124 11.7207L5.39124 11.771C5.38855 12.6646 5.69434 13.5312 6.25659 14.2231C6.81873 14.9155 7.60254 15.3901 8.47424 15.5669C8.14368 15.6567 7.80286 15.7031 7.46033 15.7041C7.21716 15.7026 6.97461 15.6787 6.73572 15.6333C6.98169 16.3999 7.45972 17.0698 8.10315 17.5508C8.74646 18.0312 9.52307 18.2979 10.3246 18.314C8.71143 19.584 6.66309 20.1602 4.62793 19.9165C6.38525 21.0518 8.43115 21.6543 10.5205 21.6519C17.5844 21.6519 21.458 15.7681 21.458 10.6631C21.458 10.4937 21.458 10.3291 21.4467 10.1616C22.1996 9.61816 22.8488 8.94287 23.3629 8.16797L23.3676 8.16309Z" fill="#F3F3F3" fill-opacity="1.000000" fill-rule="evenodd"/>
	</g>
</svg>
